# xmcd CD database file
#
# Track frame offsets:
#	150
#	14109
#	33139
#	49962
#	64468
#	81027
#	94326
#	113148
#	133804
#	145318
#	154555
#	174937
#	189384
#	215801
#	224733
#	237166
#	254912
#	269156
#	283611
#	297258
#	311323
#
# Disc length: 4368 seconds
#
# Revision: 0
# Processed by: cddbd v1.5.1PL0 Copyright (c) Steve Scherf et al.
# Submitted via: Feurio! 1.67 - http://www.feurio.com
#
DISCID=52110e15
DTITLE=Candye Kane - Blues and Jazz Compilation
DYEAR=2005
DGENRE=Blues
TTITLE0=I'm the toughest Girl alive
TTITLE1=Freak Lover
TTITLE2=Let's Commit Adultery
TTITLE3=Blues I feel for you
TTITLE4=Dance Hall Girls
TTITLE5=No! I ain't gonna let you go
TTITLE6=I got a Feeling
TTITLE7=You need a Great Big Woman
TTITLE8=Babylon Boogie
TTITLE9=Homewrecker
TTITLE10=Love 'Em and Forgive 'Em
TTITLE11=Porn to Rock
TTITLE12=Big Mama Candyes Blues
TTITLE13=She was my Baby last Night
TTITLE14=Scream in the Night
TTITLE15=Tell me a Lie
TTITLE16=Easy Money
TTITLE17=Bigger and Better
TTITLE18=Why'd you have to say
TTITLE19=Highway of Tears
TTITLE20=For your Love
EXTD=
EXTT0=
EXTT1=
EXTT2=
EXTT3=
EXTT4=
EXTT5=
EXTT6=
EXTT7=
EXTT8=
EXTT9=
EXTT10=
EXTT11=
EXTT12=
EXTT13=
EXTT14=
EXTT15=
EXTT16=
EXTT17=
EXTT18=
EXTT19=
EXTT20=
PLAYORDER=
